# xmcd
#
# Track frame offsets:
#	150
#	13018
#	25271
#	38713
#	52418
#	65014
#	77075
#	88396
#	100351
#	114724
#	126270
#	138723
#	150447
#	164646
#	178739
#	189403
#	200393
#	210528
#	222738
#	234484
#
# Disc length: 3325 seconds
#
# Revision: 1
# Processed by: cddbd v1.5.1PL2 Copyright (c) Steve Scherf et al.
# Submitted via: audiograbber 1.83.01
#
DISCID=310cfb14
DTITLE=Various Artist - Blues and Rhythm and Boogies
DYEAR=1900
DGENRE=
TTITLE0=Elmore James - Hand in Hand
TTITLE1=Howling Wolf Crown - Dog Me Around aka How Many More Years
TTITLE2=John Lee Hooker - House Rent Boogie
TTITLE3=Drifting Slim - You're an Old Lady
TTITLE4=Joe Hill Louis - Boogie in The Park
TTITLE5=Johny ""Guitar" Watson - Too Tired
TTITLE6=B.B. King - Mean Old Frisco
TTITLE7=Pee Wee Crayton - Poppa Stoppa
TTITLE8=Root Beer Sizzle Sazzle Sizzle - Three Bits of Rhythm
TTITLE9=Saunders King - Going Mad
TTITLE10=Big Duke Henderson and His Orchestra - Hey Dr Kinsey
TTITLE11=The Great Gates - Central Roñks
TTITLE12=Little Willie Littefield - Love Me Tonight
TTITLE13=Rosco Gordon - Booted
TTITLE14=Lil Greenwood - Boogle All Night Long
TTITLE15=Young Jessie - Don't Happen No More
TTITLE16=Helen Humes - Real Fine Daddy
TTITLE17=Ike Turner - Twistin' the String
TTITLE18=Jennel Hawkins with Richard Berry and The Lockettes - Thó Mess Around
TTITLE19=Little Johny Tailor - Stop Fooling Around
EXTD=
EXTT0=
EXTT1=
EXTT2=
EXTT3=
EXTT4=
EXTT5=
EXTT6=
EXTT7=
EXTT8=
EXTT9=
EXTT10=
EXTT11=
EXTT12=
EXTT13=
EXTT14=
EXTT15=
EXTT16=
EXTT17=
EXTT18=
EXTT19=
PLAYORDER=
